<?xml version="1.0" standalone="no"?>
<!DOCTYPE svg PUBLIC "-//W3C//DTD SVG 20010904//EN"
 "http://www.w3.org/TR/2001/REC-SVG-20010904/DTD/svg10.dtd">
<svg version="1.0" xmlns="http://www.w3.org/2000/svg"
 width="1455.000000pt" height="1177.000000pt" viewBox="0 0 1455.000000 1177.000000"
 preserveAspectRatio="xMidYMid meet">
<metadata>
Created by potrace 1.16, written by Peter Selinger 2001-2019
</metadata>
<g transform="translate(0.000000,1177.000000) scale(0.100000,-0.100000)"
fill="#000000" stroke="none">
<path d="M0 5885 l0 -5885 3353 2 c1843 0 3279 5 3190 9 -2006 95 -3819 1115
-4895 2754 -353 537 -614 1135 -767 1757 -119 480 -165 860 -165 1363 0 452
37 794 130 1219 34 151 116 453 148 543 15 42 15 42 -72 -46 -103 -105 -173
-153 -273 -188 -112 -39 -198 -40 -432 -5 -109 16 -200 31 -202 33 -2 2 76 40
173 83 98 44 209 99 247 124 95 60 194 165 290 305 350 513 407 588 566 743
81 78 243 201 298 226 3 2 41 56 85 121 435 657 1029 1246 1704 1691 980 645
2144 1006 3322 1029 69 2 -1411 4 -3287 5 l-3413 2 0 -5885z"/>
<path d="M7080 11759 c558 -19 1116 -114 1650 -279 959 -298 1831 -822 2534
-1526 1005 -1004 1597 -2292 1696 -3686 5 -81 10 -262 10 -402 0 -178 3 -257
11 -262 24 -14 303 -7 392 10 372 71 705 317 959 706 38 58 95 158 126 223 45
92 61 116 75 113 16 -4 17 123 17 2555 l0 2559 -3842 -2 c-2114 0 -3746 -5
-3628 -9z"/>
<path d="M4767 10894 c-118 -18 -297 -64 -437 -113 -810 -280 -1836 -998
-2180 -1526 -64 -99 -63 -110 24 -230 15 -20 13 -20 -117 -21 -164 -2 -248
-23 -403 -98 -290 -142 -447 -308 -834 -886 -98 -145 -147 -208 -230 -292
-104 -104 -109 -108 -251 -176 -79 -38 -155 -73 -169 -77 -23 -7 -23 -8 -5
-15 34 -12 240 -40 299 -40 81 0 152 17 236 58 84 41 196 145 354 330 115 134
261 264 410 364 132 88 323 185 430 217 84 26 253 48 266 35 5 -5 -18 -52 -60
-117 -104 -164 -180 -362 -180 -468 0 -25 11 -78 25 -118 118 -349 137 -740
48 -1039 -14 -48 -27 -94 -30 -103 -4 -14 23 -23 164 -57 154 -37 238 -54 333
-65 38 -5 212 24 300 49 78 22 150 64 172 99 15 25 17 42 12 106 -6 63 -3 90
15 148 41 135 130 307 289 561 129 205 126 202 249 250 59 23 149 53 200 66
109 27 120 33 193 92 85 69 129 85 219 80 112 -7 197 -47 374 -176 l89 -65
-245 -241 c-248 -245 -412 -432 -597 -680 -861 -1156 -1200 -2522 -905 -3643
251 -953 969 -1635 1925 -1826 231 -46 298 -52 625 -52 348 1 475 14 779 81
1033 229 2037 868 2802 1784 555 664 985 1570 1154 2428 16 81 28 147 26 149
-1 1 -22 -48 -47 -110 -61 -156 -239 -513 -344 -692 -257 -438 -493 -745 -829
-1080 -723 -720 -1550 -1193 -2340 -1337 -102 -19 -157 -23 -351 -23 -250 0
-346 14 -509 72 -494 177 -757 643 -707 1253 65 803 561 1712 1375 2525 228
227 349 326 575 469 171 107 359 183 556 223 141 28 495 25 670 -6 415 -73
894 -248 1282 -467 273 -154 813 -534 1073 -756 316 -268 489 -397 703 -522
417 -244 973 -381 1414 -347 240 19 423 67 628 166 393 189 739 548 988 1025
56 106 137 282 137 296 0 3 -30 -39 -66 -93 -204 -301 -452 -514 -726 -622
-375 -149 -780 -110 -1243 119 -343 169 -630 388 -1441 1097 l-222 194 30 77
c178 463 446 708 924 846 144 41 338 80 488 97 l109 13 -189 32 c-104 18 -287
53 -408 78 -333 69 -464 71 -594 8 -134 -65 -240 -257 -305 -553 -30 -133 -57
-333 -58 -427 0 -37 -4 -87 -7 -111 l-7 -45 -270 240 c-1036 920 -1609 1408
-2158 1843 -1290 1020 -2277 1583 -3054 1740 -119 25 -308 27 -446 5z m-2440
-3041 c35 -23 53 -68 42 -107 -9 -32 -65 -96 -85 -96 -12 0 -36 106 -36 156 0
24 27 64 44 64 5 0 20 -8 35 -17z"/>
<path d="M14527 6567 c-89 -305 -321 -744 -531 -1004 -284 -352 -658 -599
-1038 -688 -51 -12 -79 -24 -82 -34 -3 -9 -12 -54 -21 -101 -46 -236 -144
-577 -240 -834 -696 -1868 -2335 -3279 -4345 -3741 -369 -85 -825 -145 -1205
-158 -44 -2 1622 -4 3703 -5 l3782 -2 0 3315 c0 1823 -1 3315 -2 3315 -2 0
-11 -28 -21 -63z"/>
<path d="M7650 5864 c-19 -8 -44 -23 -55 -33 -13 -12 -108 -38 -273 -76 -226
-51 -257 -56 -290 -46 -40 12 -62 15 -103 13 -16 -1 -179 -101 -395 -241 -309
-199 -373 -245 -391 -277 -27 -46 -29 -93 -7 -137 31 -59 825 -1182 859 -1214
42 -40 102 -57 151 -44 19 5 115 61 212 124 97 62 182 116 187 120 6 3 99 26
208 51 l196 45 332 7 c313 7 332 8 361 28 17 12 39 37 50 56 18 34 18 65 12
780 -7 826 -4 791 -73 837 l-34 23 -456 0 c-385 -1 -461 -3 -491 -16z m-91
-837 c2 -575 6 -759 16 -782 25 -63 77 -91 180 -97 28 -2 -27 -18 -196 -57
-228 -52 -236 -53 -267 -37 -18 9 -38 26 -46 39 -18 26 -366 1414 -366 1456 0
17 10 42 23 57 21 24 54 34 338 100 173 40 314 73 314 73 0 1 2 -338 4 -752z"/>
</g>
</svg>
